<?xml version="1.0"?>
<svg xmlns="http://www.w3.org/2000/svg" xmlns:xlink="http://www.w3.org/1999/xlink" version="1.1" viewBox="0 0 192 192" width="48px" height="48px"><g fill="none" fill-rule="nonzero" stroke="none" stroke-width="1" stroke-linecap="butt" stroke-linejoin="miter" stroke-miterlimit="10" stroke-dasharray="" stroke-dashoffset="0" font-family="none" font-weight="none" font-size="none" text-anchor="none" style="mix-blend-mode: normal"><path d="M0,192v-192h192v192z" fill="none"/><g fill="#dd2613"><path d="M96,16c-44.24,0 -80,35.76 -80,80c0,44.24 35.76,80 80,80c44.24,0 80,-35.76 80,-80c0,-44.24 -35.76,-80 -80,-80zM133.656,122.344c3.128,3.128 3.128,8.184 0,11.312c-1.56,1.56 -3.608,2.344 -5.656,2.344c-2.048,0 -4.096,-0.784 -5.656,-2.344l-26.344,-26.344l-26.344,26.344c-1.56,1.56 -3.608,2.344 -5.656,2.344c-2.048,0 -4.096,-0.784 -5.656,-2.344c-3.128,-3.128 -3.128,-8.184 0,-11.312l26.344,-26.344l-26.344,-26.344c-3.128,-3.128 -3.128,-8.184 0,-11.312c3.128,-3.128 8.184,-3.128 11.312,0l26.344,26.344l26.344,-26.344c3.128,-3.128 8.184,-3.128 11.312,0c3.128,3.128 3.128,8.184 0,11.312l-26.344,26.344z"/></g></g></svg>
