<?xml version="1.0" standalone="no"?>
<!DOCTYPE svg PUBLIC "-//W3C//DTD SVG 20010904//EN"
 "http://www.w3.org/TR/2001/REC-SVG-20010904/DTD/svg10.dtd">
<svg version="1.0" xmlns="http://www.w3.org/2000/svg"
 width="540.000000pt" height="540.000000pt" viewBox="0 0 540.000000 540.000000"
 preserveAspectRatio="xMidYMid meet">
<metadata>
Created by potrace 1.11, written by Peter Selinger 2001-2013
</metadata>
<g transform="translate(0.000000,540.000000) scale(0.100000,-0.100000)"
fill="#000000" stroke="none">
<path d="M2617 5204 c-1 -1 -42 -4 -92 -8 -49 -3 -99 -8 -110 -10 -11 -2 -42
-7 -70 -10 -154 -21 -453 -101 -580 -155 -11 -5 -49 -21 -85 -36 -353 -151
-701 -428 -980 -781 -66 -83 -164 -238 -222 -349 -114 -219 -229 -583 -254
-800 -3 -27 -7 -56 -9 -62 -22 -67 -22 -479 0 -591 2 -10 6 -43 10 -73 4 -30
9 -57 11 -60 2 -3 6 -21 9 -40 35 -203 136 -496 238 -689 28 -52 55 -105 61
-117 6 -13 14 -23 19 -23 4 0 7 -6 7 -12 0 -15 98 -153 179 -253 67 -83 263
-282 346 -353 81 -68 243 -188 280 -207 17 -9 44 -25 60 -35 60 -39 272 -139
370 -175 95 -35 281 -92 335 -101 14 -3 41 -9 60 -14 44 -11 82 -18 140 -25
25 -3 59 -8 75 -10 340 -45 701 -7 1070 112 61 19 124 41 140 48 17 8 57 25
90 38 164 68 373 194 535 324 86 69 295 271 365 353 169 199 340 488 414 700
13 36 27 74 31 85 20 48 82 273 93 340 3 17 8 41 11 54 3 13 8 49 12 80 3 31
8 58 9 61 6 11 18 190 18 280 0 93 -10 271 -18 300 -2 8 -6 38 -10 65 -16 131
-96 446 -135 530 -5 11 -19 45 -31 75 -77 201 -215 430 -385 640 -57 70 -301
306 -382 370 -380 298 -846 480 -1347 525 -63 6 -273 13 -278 9z"/>
</g>
</svg>
